# xmcd
#
# Track frame offsets:
#	150
#	16057
#	38958
#	60158
#	82545
#	102467
#	124008
#	140143
#	161985
#	177940
#	200808
#	219285
#	234468
#
# Disc length: 3358 seconds
#
# Revision: 1
# Processed by: cddbd v1.4PL0 Copyright (c) Steve Scherf et al.
# Submitted via: audiograbber 1.81.03
#
DISCID=ab0d1c0d
DTITLE=Buster Benton - Spider in My Stew
DYEAR=1983
DGENRE=Blues
TTITLE0=Spider in My Stew
TTITLE1=Sweet 94
TTITLE2=Born Wirh the Blues
TTITLE3=Love Like I Wanna
TTITLE4=Leave Me Alone
TTITLE5=Sorry
TTITLE6=Funny About My Money
TTITLE7=Lonesome for a Dime
TTITLE8=Do It in the Rain
TTITLE9=Disco Blues
TTITLE10=Dangerous Woman
TTITLE11=Going Fishin
TTITLE12=Money Is the Name of the Game
EXTD=Originally released by RONN Records 1983, RCD-8002
EXTT0=
EXTT1=
EXTT2=
EXTT3=
EXTT4=
EXTT5=
EXTT6=
EXTT7=
EXTT8=
EXTT9=
EXTT10=
EXTT11=
EXTT12=
PLAYORDER=
